# xmcd
# Copyright (C) 1995-1998 Ti Kan
#
# Track frame offsets:
#       150
#       18992
#       37150
#       61732
#       78510
#       93235
#       108262
#       128442
#       144905
#       160735
#       181465
#       200590
#       214612
#       236175
#       253257
#       272800
#       291942
#
# Disc length: 4135 seconds
#
# Revision: 0
# Processed by: cddbd v1.5.1PL0 Copyright (c) Steve Scherf et al.
# Submitted via: CD-Transfer v1.0
#
DISCID=f1102511
DTITLE=Various Artist - 
DYEAR=03
DGENRE=
TTITLE0=Home Away From Home
TTITLE1=I Want My Cake
TTITLE2=The Hump
TTITLE3=Always
TTITLE4=How Do They Know
TTITLE5=Get That Vibe
TTITLE6=Leaving
TTITLE7=One Of Those Things
TTITLE8=Love's Story
TTITLE9=Home Away From Home
TTITLE10=Take Me Up
TTITLE11=This
TTITLE12=Convince 'Ya
TTITLE13=Still Be Loving You
TTITLE14=Best Thing
TTITLE15=Heaven
TTITLE16=Home Away From Home
EXTD=
EXTT0=
EXTT1=
EXTT2=
EXTT3=
EXTT4=
EXTT5=
EXTT6=
EXTT7=
EXTT8=
EXTT9=
EXTT10=
EXTT11=
EXTT12=
EXTT13=
EXTT14=
EXTT15=
EXTT16=
PLAYORDER=
